<svg xmlns="http://www.w3.org/2000/svg"  viewBox="0 0 64 64" width="64px" height="64px"><linearGradient id="XVGFQPFuEMQQdIWbPiv00a" x1="31.997" x2="31.997" y1="21.856" y2="29.326" gradientUnits="userSpaceOnUse"><stop offset="0" stop-color="#6dc7ff"/><stop offset="1" stop-color="#e6abff"/></linearGradient><polygon fill="url(#XVGFQPFuEMQQdIWbPiv00a)" points="24.364,20.069 28.511,23.213 25.969,29 32,32.562 32,32.563 32,32.562 32,32.563 32,32.562 38,29 35.277,23.213 39.629,20.069"/><linearGradient id="XVGFQPFuEMQQdIWbPiv00b" x1="31.885" x2="31.885" y1="38.915" y2="44.662" gradientUnits="userSpaceOnUse"><stop offset="0" stop-color="#6dc7ff"/><stop offset="1" stop-color="#e6abff"/></linearGradient><polygon fill="url(#XVGFQPFuEMQQdIWbPiv00b)" points="31.988,47.676 25,41.468 32,36.672 38.77,41.493"/><g><linearGradient id="XVGFQPFuEMQQdIWbPiv00c" x1="32" x2="32" y1="7.638" y2="56.192" gradientUnits="userSpaceOnUse"><stop offset="0" stop-color="#1a6dff"/><stop offset="1" stop-color="#c822ff"/></linearGradient><path fill="url(#XVGFQPFuEMQQdIWbPiv00c)" d="M53.959,20.405l1.877-2.855c0.229-0.35,0.218-0.806-0.031-1.143l-3.243-4.401 c-0.028-0.039-0.059-0.075-0.093-0.109c-1.642-1.666-4.141-2.077-6.221-1.022l-0.906,0.459l-4.963-5.036 C40.191,6.107,39.935,6,39.667,6H24.333c-0.268,0-0.524,0.107-0.712,0.298l-4.963,5.035l-0.905-0.459 c-2.079-1.055-4.579-0.645-6.221,1.021c-0.034,0.034-0.064,0.07-0.093,0.109l-3.244,4.402c-0.249,0.337-0.261,0.792-0.031,1.143 l1.877,2.855l-1.938,3.931c-0.116,0.234-0.135,0.503-0.055,0.751l6.321,19.432c0.949,2.753,2.848,5.067,5.347,6.516l11.781,6.83 C31.653,57.955,31.827,58,32,58s0.347-0.045,0.502-0.135l11.78-6.83c2.499-1.448,4.398-3.762,5.354-6.533l6.315-19.415 c0.08-0.248,0.062-0.518-0.055-0.751L53.959,20.405z M47.739,43.868c-0.793,2.299-2.376,4.23-4.46,5.437L32,55.844l-11.279-6.54 c-2.084-1.208-3.668-3.139-4.454-5.421l-6.189-19.029l2.01-4.08c0.157-0.318,0.134-0.695-0.061-0.991l-1.809-2.751l2.786-3.78 c1.029-1.003,2.566-1.244,3.845-0.595l1.557,0.79c0.388,0.198,0.858,0.121,1.164-0.189L24.752,8H27v1.851h2V8h2v3.851h2V8h2v1.851 h2V8h2.248l5.183,5.258c0.305,0.31,0.776,0.387,1.164,0.19l1.558-0.79c1.28-0.648,2.816-0.408,3.845,0.596l2.785,3.779 l-1.809,2.751c-0.194,0.296-0.218,0.673-0.061,0.991l2.01,4.08L47.739,43.868z"/><linearGradient id="XVGFQPFuEMQQdIWbPiv00d" x1="32.003" x2="32.003" y1="7.638" y2="56.192" gradientUnits="userSpaceOnUse"><stop offset="0" stop-color="#1a6dff"/><stop offset="1" stop-color="#c822ff"/></linearGradient><path fill="url(#XVGFQPFuEMQQdIWbPiv00d)" d="M44.052,15.585c-0.219-0.352-0.631-0.534-1.039-0.455l-3.053,0.59 c-1.405,0.274-2.856,0.03-4.087-0.683c-2.39-1.386-5.358-1.384-7.748,0.001c-1.226,0.712-2.676,0.954-4.084,0.683l-3.053-0.591 c-0.411-0.081-0.822,0.102-1.04,0.455l-4.126,6.656c-1.125,1.521-1.101,3.546,0.06,5.042l4.344,5.756 C19.438,34.012,19,35.232,19,36.5c0,2.572,1.777,4.731,4.166,5.33l8.187,6.934C31.54,48.921,31.771,49,32,49 c0.23,0,0.46-0.079,0.646-0.237l7.994-6.78c0.043-0.037,0.065-0.086,0.101-0.128c2.439-0.563,4.264-2.748,4.264-5.355 c0-1.269-0.438-2.489-1.225-3.46l4.336-5.756c1.161-1.495,1.185-3.521,0.105-4.975L44.052,15.585z M32,46.689l-5.841-4.947 c0.515-0.163,1.008-0.402,1.466-0.716l4.378-3.128l4.394,3.139c0.447,0.307,0.932,0.54,1.44,0.702L32,46.689z M46.537,26.057 l-4.864,6.467c-0.31,0.418-0.247,1.003,0.144,1.347c0.756,0.665,1.189,1.623,1.189,2.629c0,1.93-1.57,3.5-3.5,3.5 c-0.711,0-1.395-0.212-1.963-0.601l-4.537-3.241v-2.346l5.577-3.999c0.396-0.284,0.529-0.811,0.316-1.249l-2.47-5.09l3.93-1.543 l-0.73-1.861l-4.937,1.938c-0.26,0.102-0.465,0.307-0.566,0.567c-0.102,0.259-0.09,0.55,0.032,0.8l2.574,5.304l-4.737,3.397 l-4.737-3.382l2.74-5.229c0.132-0.252,0.15-0.548,0.051-0.814s-0.308-0.478-0.572-0.581l-5.113-2l-0.729,1.862l4.073,1.593 l-2.626,5.011c-0.231,0.442-0.102,0.988,0.305,1.278l5.6,3.999v2.354l-4.509,3.221C25.895,39.788,25.211,40,24.5,40 c-1.93,0-3.5-1.57-3.5-3.5c0-1.006,0.434-1.964,1.189-2.629c0.391-0.344,0.453-0.929,0.144-1.346l-4.871-6.467 c-0.604-0.78-0.617-1.835,0.014-2.694l3.809-6.138l2.377,0.46c1.881,0.363,3.824,0.036,5.468-0.917 c1.771-1.026,3.973-1.026,5.742,0c1.646,0.955,3.591,1.279,5.468,0.917l2.377-0.459l3.854,6.206 C47.155,24.222,47.143,25.278,46.537,26.057z"/></g></svg>