<svg width="255" height="255" viewBox="0 0 255 255" fill="none" xmlns="http://www.w3.org/2000/svg">
<circle cx="127.5" cy="127.5" r="127.5" fill="#D9D9D9"/>
<path d="M223.675 128.286C222.512 128.288 221.36 128.06 220.285 127.616C219.21 127.172 218.233 126.521 217.41 125.699C216.587 124.877 215.934 123.901 215.489 122.826C215.043 121.752 214.814 120.6 214.814 119.437C214.814 119.341 214.874 119.246 214.874 119.138L197.414 101.679C194.52 98.7613 192.888 94.823 192.87 90.7132V50.1864C192.864 49.2887 192.504 48.4298 191.868 47.7961C191.232 47.1625 190.372 46.8053 189.474 46.8022H178.532C177.634 46.8022 176.772 47.1584 176.135 47.7927C175.498 48.427 175.139 49.2877 175.136 50.1864V79.0419L128.654 34.0666C128.013 33.4404 127.151 33.0928 126.255 33.0995C125.359 33.1062 124.502 33.4667 123.871 34.1024L36.1922 121.805C35.5584 122.439 35.2023 123.3 35.2023 124.197C35.2023 125.093 35.5584 125.954 36.1922 126.588L44.5152 134.923C45.1543 135.548 46.0128 135.898 46.9069 135.898C47.8009 135.898 48.6594 135.548 49.2985 134.923L116.684 68.5305C119.611 65.6644 123.549 64.0673 127.645 64.0852C131.742 64.1031 135.666 65.7346 138.567 68.6261L204.637 134.696C207.544 137.61 209.176 141.558 209.176 145.674C209.176 149.789 207.544 153.737 204.637 156.651L196.518 164.783C193.621 167.651 189.717 169.272 185.641 169.298C181.565 169.325 177.64 167.756 174.706 164.927L128.355 119.892C127.714 119.264 126.85 118.917 125.954 118.925C125.057 118.934 124.2 119.299 123.572 119.939L79.0509 164.664C78.4228 165.301 78.0708 166.16 78.0708 167.055C78.0708 167.95 78.4228 168.809 79.0509 169.447L87.2662 177.698C87.9008 178.332 88.761 178.688 89.6579 178.688C90.5548 178.688 91.415 178.332 92.0496 177.698L116.122 153.949C119.033 151.092 122.949 149.491 127.028 149.491C131.107 149.491 135.023 151.092 137.934 153.949L161.779 177.387L161.862 177.471C164.775 180.384 166.412 184.335 166.412 188.455C166.412 192.574 164.775 196.525 161.862 199.438L138.125 223.164V223.319C138.123 225.069 137.602 226.779 136.628 228.232C135.654 229.686 134.271 230.818 132.654 231.486C131.037 232.154 129.258 232.328 127.542 231.985C125.826 231.642 124.251 230.798 123.014 229.56C121.778 228.322 120.936 226.745 120.596 225.029C120.255 223.313 120.431 221.534 121.101 219.918C121.772 218.302 122.906 216.92 124.361 215.949C125.816 214.977 127.526 214.458 129.276 214.458C129.384 214.458 129.467 214.518 129.575 214.518L153.193 190.84C153.51 190.525 153.762 190.151 153.934 189.739C154.107 189.326 154.196 188.884 154.197 188.437C154.196 187.99 154.105 187.549 153.93 187.138C153.756 186.727 153.501 186.356 153.181 186.045L129.324 162.607C128.686 161.979 127.827 161.627 126.932 161.627C126.037 161.627 125.178 161.979 124.54 162.607L100.552 186.284C97.6345 189.162 93.6985 190.772 89.6002 190.763C85.502 190.754 81.5731 189.127 78.6682 186.236L70.417 177.997C67.5208 175.082 65.8953 171.14 65.8953 167.031C65.8953 162.922 67.5208 158.98 70.417 156.065L114.902 111.341C117.79 108.454 121.697 106.816 125.781 106.781C129.865 106.745 133.799 108.314 136.738 111.15L183.124 156.089C183.762 156.717 184.621 157.07 185.516 157.07C186.411 157.07 187.27 156.717 187.908 156.089L196.027 147.97C196.655 147.332 197.007 146.473 197.007 145.578C197.007 144.683 196.655 143.824 196.027 143.186L129.969 77.1524C129.333 76.5215 128.474 76.1675 127.578 76.1675C126.682 76.1675 125.822 76.5215 125.186 77.1524L57.777 143.581C54.8522 146.446 50.9158 148.043 46.8215 148.025C42.7271 148.007 38.8048 146.376 35.9052 143.485L27.5583 135.186L27.5344 135.15C26.0947 133.709 24.9532 131.999 24.1752 130.116C23.3971 128.234 22.9978 126.217 23 124.18C23.0022 122.143 23.406 120.126 24.1881 118.245C24.9703 116.365 26.1155 114.657 27.5583 113.219L115.261 25.5164C118.151 22.6544 122.045 21.034 126.112 21.0005C130.18 20.967 134.1 22.523 137.037 25.337L162.939 50.4136V50.1864C162.945 46.0696 164.584 42.1234 167.496 39.2135C170.408 36.3036 174.356 34.6676 178.472 34.6645H189.426C193.541 34.6708 197.485 36.3082 200.395 39.2177C203.305 42.1273 204.942 46.0717 204.948 50.1864V90.6534C204.948 91.0978 205.035 91.5378 205.206 91.9483C205.376 92.3587 205.626 92.7315 205.941 93.0451L223.484 110.588H223.651C225.998 110.586 228.249 111.517 229.91 113.176C231.571 114.834 232.505 117.084 232.506 119.431C232.508 121.778 231.577 124.03 229.919 125.69C228.26 127.351 226.022 128.285 223.675 128.286Z" fill="black"/>
</svg>
