<svg width="146" height="148" viewBox="0 0 146 148" fill="none" xmlns="http://www.w3.org/2000/svg">
<rect x="3.89017" y="50.004" width="99" height="112.282" rx="32" transform="rotate(-30 3.89017 50.004)" fill="#0F0F0F"/>
<path d="M27.468 82.7651L27.1381 83.1408C24.6882 80.9896 23.0616 78.9227 22.3069 76.8864C21.543 74.8254 21.685 72.8277 22.7062 70.8809C22.8369 70.6317 23.1291 70.2449 23.5211 69.7683C23.9246 69.2777 24.466 68.6541 25.127 67.9162C26.4494 66.4399 28.2615 64.4942 30.4309 62.2176C34.7704 57.6636 40.5482 51.7768 46.7178 45.6552C54.5821 37.8519 60.3614 32.2824 64.3719 28.6621C66.3761 26.853 67.9472 25.5228 69.1205 24.6423C69.7064 24.2027 70.2038 23.8671 70.6132 23.6392C70.9997 23.4241 71.3838 23.2601 71.718 23.2601C75.3823 23.2601 78.155 25.1355 84.9094 31.7365L84.56 32.0941L84.9095 31.7366C87.0154 33.795 88.5526 35.1562 89.5521 35.8576C89.7999 36.0316 90.0057 36.1585 90.172 36.244C90.2254 36.2714 90.272 36.2932 90.3124 36.3104C90.3687 34.3681 91.388 32.8429 93.1744 31.8209C94.9856 30.7847 97.5849 30.2601 100.81 30.2601C103.119 30.2601 104.958 30.3315 106.396 30.685C107.861 31.045 108.946 31.7069 109.702 32.8957C110.439 34.0533 110.83 35.6604 111.046 37.8352C111.264 40.0184 111.31 42.8421 111.31 46.4761V57.9863L115.878 62.6252C115.878 62.6252 115.878 62.6253 115.878 62.6253C117.162 63.9289 118.473 65.1108 119.546 65.9633C120.083 66.3903 120.553 66.7281 120.925 66.9565C121.112 67.0709 121.265 67.1523 121.383 67.2035C121.481 67.246 121.531 67.2566 121.543 67.2592C121.548 67.2601 121.548 67.2601 121.544 67.2601C121.849 67.2601 122.145 67.3783 122.401 67.5319C122.663 67.6891 122.923 67.9064 123.167 68.1587C123.657 68.6632 124.125 69.3472 124.466 70.0948L124.466 70.0949C124.961 71.1813 125.246 72.0303 125.07 72.875C124.895 73.7074 124.293 74.4282 123.386 75.3356C123.386 75.3356 123.386 75.3356 123.386 75.3357C123.385 75.3357 123.385 75.3357 123.385 75.3358C122.478 76.2436 121.757 76.8456 120.925 77.0197C120.08 77.1963 119.231 76.911 118.145 76.4161L118.145 76.4161C117.397 76.0753 116.713 75.6058 116.208 75.1141C115.955 74.8683 115.738 74.6074 115.581 74.3439C115.427 74.0862 115.31 73.7902 115.31 73.4841C115.31 73.4842 115.31 73.4841 115.31 73.4837C115.309 73.4788 115.304 73.4299 115.262 73.3221C115.219 73.2143 115.151 73.0769 115.055 72.9108C114.863 72.5789 114.578 72.166 114.216 71.6981C113.492 70.7642 112.488 69.6452 111.38 68.5723C108.229 65.5216 106.419 63.467 105.434 60.5636C104.461 57.6916 104.31 54.028 104.31 47.8101V37.2601M27.468 82.7651L104.31 37.2601M27.468 82.7651L27.1381 83.1409C28.7485 84.5547 30.0998 85.6653 31.5287 86.1466C33.0127 86.6466 34.5156 86.453 36.3836 85.4598C38.2281 84.4791 40.4787 82.6933 43.5041 79.9393C46.5363 77.179 50.3799 73.4149 55.4131 68.4501L72.9686 51.1338L89.7464 67.9107L106.532 84.697L104.481 86.8807C103.842 87.5605 103.159 88.1757 102.58 88.6169C102.289 88.838 102.033 89.0088 101.828 89.1217C101.7 89.1921 101.614 89.227 101.564 89.2441C101.514 89.2144 101.445 89.1695 101.356 89.1065C101.142 88.9563 100.849 88.7284 100.48 88.4264C99.7446 87.8241 98.7369 86.9486 97.5279 85.8631C95.1112 83.6932 91.9053 80.6975 88.4945 77.4006C87.7897 76.7194 87.117 76.0664 86.4737 75.4419C83.3755 72.4346 80.9588 70.0887 78.9265 68.4358C76.478 66.4444 74.4829 65.3674 72.4167 65.4166C70.3549 65.4657 68.3605 66.6336 65.9045 68.739C63.8647 70.4875 61.4368 72.947 58.3225 76.1018C57.6755 76.7573 56.9988 77.4428 56.2898 78.1582L56.645 78.5101M27.468 82.7651L56.645 78.5101M104.31 37.2601H104.81V36.7601H104.31V37.2601ZM56.645 78.5101L56.2898 78.1582C52.8098 81.6698 49.5711 85.1114 47.1558 87.8291C45.9486 89.1873 44.9434 90.3688 44.2155 91.2899C43.8519 91.75 43.5533 92.1504 43.3321 92.4785C43.1224 92.7894 42.9477 93.0846 42.8785 93.3183C42.4819 94.6588 42.7223 96.2085 43.3334 97.7332C43.9477 99.266 44.9571 100.827 46.1802 102.225C47.4039 103.624 48.8554 104.876 50.3682 105.781C51.876 106.683 53.4777 107.26 54.993 107.26C56.3265 107.26 57.5645 106.839 59.1971 105.715C60.8127 104.602 62.8534 102.773 65.801 99.9151L72.8776 93.0529M56.645 78.5101L72.8776 93.0529M72.8776 93.0529L79.2224 99.3987L79.576 99.0451L79.2224 99.3987L85.5637 105.74L79.9626 111.4L80.2787 111.713L79.9626 111.4C78.3348 113.046 76.6577 114.603 75.2694 115.785C74.5747 116.376 73.957 116.869 73.4569 117.232C72.9362 117.609 72.5966 117.804 72.4398 117.854C71.0421 118.297 70.1228 119.753 69.7555 121.239C69.3862 122.734 69.516 124.484 70.4782 125.643C71.5479 126.933 73.3013 127.292 74.9089 126.986C76.5214 126.679 78.1064 125.685 78.8909 124.103C79.0304 123.822 79.336 123.365 79.7935 122.761C80.2447 122.167 80.8249 121.454 81.4951 120.671C82.8353 119.105 84.5248 117.267 86.2381 115.538C88.4184 113.339 90.0797 111.573 91.1661 110.004C92.2581 108.427 92.8085 106.994 92.6869 105.469C92.5665 103.96 91.7943 102.453 90.4577 100.711C89.119 98.966 87.1666 96.9249 84.6046 94.3476C81.9677 91.695 79.8841 89.6757 78.0872 88.3086C76.2903 86.9415 74.719 86.1778 73.1063 86.1237C71.4883 86.0694 69.9294 86.7321 68.1656 87.9858C66.4051 89.2372 64.3794 91.1223 61.8239 93.6002L62.172 93.9591L61.8239 93.6002L54.7524 100.457L52.1336 97.8386L52.1335 97.8386L49.5215 95.2256L61.1651 83.6121L72.8105 71.9968L84.2074 83.3307L84.5207 83.0156L84.2074 83.3307C88.0473 87.1491 91.0511 90.0664 93.5088 92.1797C95.9594 94.2871 97.9087 95.6326 99.6401 96.2642C101.409 96.9094 102.94 96.8057 104.502 96.0655C106.024 95.3439 107.567 94.0205 109.404 92.2767C110.887 90.8692 111.874 89.7456 112.482 88.5974C113.1 87.4313 113.31 86.275 113.31 84.8371C113.31 83.9781 113.208 83.1863 112.768 82.2214C112.337 81.2758 111.591 80.184 110.344 78.6982C107.854 75.7286 103.265 71.0676 94.8835 62.6866C87.2688 55.0718 82.5656 50.488 79.4641 47.8083C77.9142 46.4691 76.7447 45.5881 75.7981 45.0409C74.846 44.4906 74.0891 44.2601 73.373 44.2601C72.0332 44.2601 70.6117 44.9254 68.3646 46.6871C66.1064 48.4575 62.9255 51.4099 58.0547 56.1373C51.404 62.5911 43.1609 70.5542 39.7382 73.832L33.8547 79.465L31.6763 77.4187C31.0028 76.786 30.3929 76.094 29.9553 75.4948C29.7361 75.1946 29.5665 74.9264 29.4541 74.7071C29.398 74.5976 29.3597 74.5072 29.3362 74.4363C29.3321 74.4238 29.3286 74.4123 29.3256 74.4018C29.3295 74.3958 29.3337 74.3895 29.3383 74.3827C29.4018 74.2886 29.5035 74.1537 29.6472 73.9757C29.9327 73.622 30.3591 73.1288 30.9147 72.509C32.0245 71.2711 33.6328 69.5475 35.6212 67.4624C39.5971 63.2933 45.0829 57.6898 51.1184 51.6588L72.7212 30.0727L83.7158 40.9201L84.067 40.5641L72.8776 93.0529ZM63.9057 5.87588L63.81 5.38512L63.9057 5.87587C64.945 5.67316 66.715 5.58206 68.9162 5.5917C71.1058 5.60128 73.6872 5.71002 76.3298 5.89527C81.6257 6.26652 87.121 6.94179 90.1858 7.72746L90.186 7.72749C93.4404 8.56084 99.9315 11.1092 104.59 13.3902L104.81 12.9411L104.59 13.3902C121.005 21.4262 135.125 39.1027 139.716 57.3819C146.128 82.9121 138.279 108.674 118.706 126.339C111.257 133.062 99.4294 139.435 89.6839 141.977C85.4696 143.076 79.5252 143.642 72.3117 143.617C53.0843 143.55 37.7306 137.144 24.0785 123.492C10.4982 109.911 4.1416 94.6928 3.93596 75.2548L3.43599 75.2601L3.93596 75.2548C3.86512 68.6098 4.15178 63.8965 5.18662 59.3067C6.22171 54.7159 8.0111 50.2228 10.978 44.025L10.978 44.025C12.8895 40.0309 14.3344 37.3728 16.2028 34.8118C18.0735 32.2476 20.38 29.7652 24.0324 26.1348C35.4709 14.7668 46.1317 9.34229 63.9057 5.87588ZM96.81 36.7601H97.31V37.2601H96.81V36.7601ZM90.3067 36.5273C90.3066 36.5274 90.3068 36.526 90.3076 36.5233C90.3072 36.5259 90.3068 36.5272 90.3067 36.5273ZM29.2843 74.4697C29.2845 74.4692 29.2848 74.4687 29.2851 74.4682C29.2823 74.4753 29.2803 74.4791 29.28 74.4792C29.2797 74.4794 29.2809 74.4763 29.2843 74.4697Z" fill="white" stroke="black"/>
<circle cx="72.5" cy="74.5" r="69.5" stroke="white" stroke-width="5"/>
</svg>
